<svg width="62" height="62" viewBox="0 0 62 62" fill="none" xmlns="http://www.w3.org/2000/svg">
<g id="Group">
<path id="Vector" d="M26.6382 34.6686C25.4049 32.4179 23.9308 30.3571 22.1822 28.4708C19.5945 25.7061 16.5978 23.5166 13.1744 21.87C12.9062 21.7473 12.5833 21.478 12.5258 21.249C12.239 19.6419 11.3896 18.4669 10.055 17.5727C8.99092 16.8672 7.95868 16.1275 6.87642 15.3731C8.82986 11.7576 11.1772 8.5574 14.0152 5.70318C15.1793 4.54068 16.4287 3.45772 17.6622 2.39181C18.3514 1.80684 19.1567 1.71285 19.9632 2.13034C20.7362 2.5325 21.0564 3.1979 21.0202 4.05719C21.0106 4.25553 21.0016 4.47035 21.0085 4.66812C21.1054 6.0343 21.0876 7.42097 21.3324 8.76552C21.7422 11.0614 22.8639 12.953 24.9522 14.1674C26.6199 15.149 28.3926 15.8299 30.3141 16.0437C30.7614 16.0941 30.966 16.285 31.1293 16.7084C33.5781 23.075 36.0752 29.407 38.5241 35.7736C39.4852 38.2648 41.1297 40.0063 43.6215 40.9592C46.565 42.0945 49.5103 43.2792 52.4544 44.4309C52.6886 44.5218 52.9228 44.6126 53.1092 44.7547C55.3323 46.5255 57.5867 48.2457 59.7627 50.0842C61.2247 51.3204 61.711 52.9701 61.4138 54.8615C61.3604 55.2263 61.2031 55.4463 60.7928 55.5101C60.1682 55.5813 59.5471 55.7514 58.9049 55.7902C56.3209 55.979 53.8742 55.371 51.5592 54.2799C47.3327 52.3147 43.7834 49.4184 40.7421 45.9435C36.944 41.5873 32.516 38.0945 27.4073 35.4339C27.1055 35.2959 26.8139 34.976 26.6382 34.6686Z" fill="white"/>
<path id="Vector_2" d="M22.6759 32.2323C25.3234 35.7704 27.9928 42.3109 27.6752 44.566C21.5221 40.3412 15.4026 36.1316 9.2666 31.9227C10.278 29.2145 11.2747 26.5562 12.3009 23.798C16.4949 25.7808 19.9419 28.5816 22.6759 32.2323ZM18.5742 35.7574C19.1215 35.8374 19.6397 35.5554 19.7527 35.0069C19.9053 34.1766 20.025 33.3474 20.0947 32.5035C20.1411 31.9408 19.7301 31.5096 19.1993 31.429C18.685 31.3479 18.1685 31.6794 18.0555 32.2278C17.9029 33.0581 17.7997 33.8868 17.6936 34.633C17.6989 35.2598 18.0604 35.6928 18.5742 35.7574ZM14.3822 32.8835C14.8965 32.9646 15.4295 32.6326 15.5424 32.0841C15.6951 31.2538 15.7818 30.4258 15.8902 29.7455C15.8656 29.0368 15.5216 28.6362 15.0243 28.571C14.4606 28.4916 13.9753 28.7725 13.8624 29.3209C13.6927 30.1353 13.59 30.9804 13.5033 31.8085C13.4398 32.3552 13.8514 32.8029 14.3822 32.8835Z" fill="white"/>
<path id="Vector_3" d="M40.53 35.0934C38.1903 29.02 35.8183 22.9642 33.4622 16.8913C33.3888 16.6793 33.3155 16.4674 33.2591 16.2713C34.261 16.1375 35.2118 15.956 36.1659 15.8733C38.5829 15.6243 40.5291 17.0252 41.1919 19.4773C40.5093 19.303 39.8602 19.1441 39.2112 18.9851C38.6622 18.8557 38.1871 18.9547 37.8923 19.493C37.5674 20.1148 37.8881 20.7966 38.6542 21.001C39.7369 21.2934 40.8514 21.5517 41.9336 21.8276C42.1001 21.8713 42.3655 21.9116 42.4195 22.0417C42.809 22.8037 43.1667 23.5998 43.5778 24.5096C42.5792 24.2638 41.7466 24.0452 40.8986 23.8602C40.6827 23.8182 40.4497 23.7603 40.2366 23.8007C39.7456 23.9167 39.4427 24.2243 39.4111 24.7369C39.3817 25.3154 39.6585 25.6853 40.2081 25.8312C41.5403 26.1809 42.8714 26.4977 44.2195 26.8304C44.4025 26.8735 44.6691 26.9467 44.7401 27.0928C45.1296 27.8548 45.4702 28.635 45.8638 29.5123C44.6657 29.224 43.6171 28.9634 42.5685 28.7028C41.8029 28.5149 41.2347 28.7822 41.074 29.3818C40.8986 30.0314 41.2624 30.5303 42.0615 30.7335C43.5267 31.1116 45.0073 31.4562 46.4725 31.8343C46.6725 31.8933 46.9561 31.9825 47.0437 32.1279C47.4161 32.874 47.7397 33.6383 48.1321 34.4827C47.8831 34.4419 47.7501 34.4135 47.6171 34.3851C46.4685 34.095 45.3034 33.8055 44.1554 33.5319C43.2239 33.3167 42.5193 33.9352 42.7304 34.7859C42.8635 35.2928 43.2494 35.4774 43.7155 35.5932C45.3631 35.998 47.0278 36.4187 48.6748 36.8069C49.0909 36.908 49.3444 37.0807 49.5235 37.487C50.062 38.7388 50.6489 39.956 51.2033 41.1907C51.2749 41.3533 51.3136 41.5169 51.4046 41.7613C48.8782 40.76 46.453 39.8213 44.0426 38.8325C42.2863 38.151 41.2005 36.8192 40.53 35.0934Z" fill="white"/>
<path id="Vector_4" d="M37.631 45.6886C39.6554 47.9119 41.6632 50.1357 44.0381 52.0002C46.8211 54.2136 49.7751 56.124 53.1955 57.2097C55.3308 57.878 57.5177 58.132 59.8193 57.887C59.3019 59.1426 58.3745 59.5213 57.1885 59.579C52.9387 59.7927 48.9166 58.959 45.3709 56.6401C40.3223 53.3339 35.3828 49.8424 30.4126 46.418C30.2267 46.2924 30.0993 45.9503 30.0578 45.7043C29.8344 43.5505 29.3491 41.4552 28.6836 39.3993C28.5915 39.122 28.4823 38.8288 28.3538 38.4537C28.6226 38.5929 28.7732 38.6536 28.9079 38.7315C32.1574 40.5986 35.0917 42.8892 37.631 45.6886Z" fill="white"/>
<path id="Vector_5" d="M2.5135 21.828C2.6101 21.7586 2.70611 21.6728 2.80214 21.5869C4.18111 20.4335 5.20424 19.0119 5.9551 17.3522C6.07218 17.3976 6.10515 17.3965 6.13925 17.4283C7.11976 18.1038 8.11618 18.7622 9.08078 19.4547C10.383 20.3664 10.809 21.7047 10.2667 23.1921C9.74028 24.6624 9.18032 26.1175 8.63684 27.5719C8.25976 28.5915 7.88267 29.6112 7.47435 30.6814C5.17111 28.9794 3.12699 27.1364 1.86637 24.5731C1.15674 23.1457 1.26065 22.812 2.5135 21.828Z" fill="white"/>
<path id="Vector_6" d="M33.7621 14.1253C33.7245 13.9946 33.6904 13.9628 33.7052 13.9127C34.2391 10.7591 37.1642 8.51234 40.3269 8.83145C40.873 8.87847 41.1806 9.18129 41.2324 9.72401C41.3287 10.5952 41.442 11.4823 41.5383 12.3535C41.6807 13.6026 41.8066 14.8523 41.973 16.315C39.6632 13.4747 36.7892 13.3931 33.7621 14.1253Z" fill="white"/>
</g>
</svg>
